<svg width="96" height="96" viewBox="0 0 96 96" fill="none" xmlns="http://www.w3.org/2000/svg">
<path d="M84 12H32L0 48L32 84H84C90.627 84 96 78.627 96 72V24C96 17.373 90.627 12 84 12ZM88 72C88 74.206 86.206 76 84 76H35.593L10.704 48L35.593 20H84C86.206 20 88 21.794 88 24V72ZM74.828 57.172C76.39 58.734 76.39 61.267 74.828 62.828C74.047 63.609 73.023 64 72 64C70.977 64 69.953 63.609 69.172 62.828L60 53.657L50.828 62.828C50.047 63.609 49.023 64 48 64C46.977 64 45.953 63.609 45.172 62.828C43.61 61.266 43.61 58.733 45.172 57.172L54.343 48L45.172 38.828C43.61 37.266 43.61 34.733 45.172 33.172C46.734 31.61 49.267 31.61 50.828 33.172L60 42.343L69.172 33.172C70.734 31.61 73.267 31.61 74.828 33.172C76.39 34.734 76.39 37.267 74.828 38.828L65.657 48L74.828 57.172Z" fill="white"/>
</svg>
