<svg width="612" height="612" viewBox="0 0 612 612" fill="none" xmlns="http://www.w3.org/2000/svg">
<g clip-path="url(#clip0_124_2)">
<path d="M487.688 57.375C471.317 57.375 455.347 60.626 440.411 66.918C410.557 25.494 360.679 0 306 0C251.322 0 201.444 25.494 171.589 66.918C156.652 60.626 140.683 57.375 124.312 57.375C55.769 57.375 0 113.144 0 181.688C0 240.344 40.889 289.534 95.625 302.52V554.626C95.625 586.315 121.31 612 153 612H459C490.69 612 516.375 586.315 516.375 554.625V302.519C571.11 289.514 612 240.344 612 181.688C612 113.144 556.231 57.375 487.688 57.375ZM459 554.625H153V516.375H459V554.625ZM459 459H153V302.251C173.062 297.47 191.709 288.137 207.085 274.348C235.257 294.697 269.949 306 306 306C342.051 306 376.763 294.697 404.914 274.348C420.271 288.137 438.919 297.47 459 302.251V459ZM487.688 248.625C465.083 248.625 444.14 237.208 431.67 218.102C426.832 210.682 418.857 205.919 410.04 205.173C409.236 205.116 408.452 205.077 407.649 205.077C399.673 205.077 392.024 208.405 386.554 214.315C366.453 236.136 337.077 248.625 305.999 248.625C274.921 248.625 245.545 236.136 225.444 214.334C219.439 207.813 210.814 204.561 201.959 205.173C193.143 205.919 185.167 210.681 180.329 218.102C167.86 237.208 146.937 248.625 124.312 248.625C87.401 248.625 57.374 218.599 57.374 181.687C57.374 144.775 87.4 114.749 124.312 114.749C138.732 114.749 152.693 119.588 164.685 128.749C171.665 134.085 180.711 135.902 189.241 133.76C197.752 131.58 204.809 125.593 208.366 117.542C224.47 80.994 262.797 57.375 306 57.375C349.203 57.375 387.53 80.975 403.652 117.542C407.19 125.594 414.247 131.58 422.757 133.779C431.287 135.921 440.333 134.123 447.314 128.768C459.305 119.588 473.267 114.749 487.687 114.749C524.598 114.749 554.625 144.775 554.625 181.687C554.625 218.599 524.599 248.625 487.688 248.625Z" fill="#2A2627"/>
</g>
<defs>
<clipPath id="clip0_124_2">
<rect width="612" height="612" fill="white"/>
</clipPath>
</defs>
</svg>
