<svg width="12" height="10" viewBox="0 0 12 10" fill="none" xmlns="http://www.w3.org/2000/svg">
<path d="M11.7 4.1002H10.5V2.9002C10.5 2.7352 10.365 2.6002 10.2 2.6002H9.6C9.435 2.6002 9.3 2.7352 9.3 2.9002V4.1002H8.1C7.935 4.1002 7.8 4.2352 7.8 4.4002V5.0002C7.8 5.1652 7.935 5.3002 8.1 5.3002H9.3V6.5002C9.3 6.6652 9.435 6.8002 9.6 6.8002H10.2C10.365 6.8002 10.5 6.6652 10.5 6.5002V5.3002H11.7C11.865 5.3002 12 5.1652 12 5.0002V4.4002C12 4.2352 11.865 4.1002 11.7 4.1002ZM4.2 5.0002C5.52562 5.0002 6.6 3.92582 6.6 2.6002C6.6 1.27457 5.52562 0.200195 4.2 0.200195C2.87437 0.200195 1.8 1.27457 1.8 2.6002C1.8 3.92582 2.87437 5.0002 4.2 5.0002ZM5.88 5.60019H5.56687C5.15062 5.79144 4.6875 5.9002 4.2 5.9002C3.7125 5.9002 3.25125 5.79144 2.83313 5.60019H2.52C1.12875 5.60019 0 6.72895 0 8.1202V8.9002C0 9.39707 0.403125 9.8002 0.9 9.8002H7.5C7.99687 9.8002 8.4 9.39707 8.4 8.9002V8.1202C8.4 6.72895 7.27125 5.60019 5.88 5.60019Z" fill="#44444F"/>
</svg>
