<svg xmlns="http://www.w3.org/2000/svg" xmlns:xlink="http://www.w3.org/1999/xlink" viewBox="0,0,256,256" width="64px" height="64px" fill-rule="nonzero"><g fill="#ffffff" fill-rule="nonzero" stroke="none" stroke-width="1" stroke-linecap="butt" stroke-linejoin="miter" stroke-miterlimit="10" stroke-dasharray="" stroke-dashoffset="0" font-family="none" font-weight="none" font-size="none" text-anchor="none" style="mix-blend-mode: normal"><g transform="scale(3.55556,3.55556)"><path d="M27,12c-3.309,0 -6,2.691 -6,6v7h-6c-3.314,0 -6,2.686 -6,6v19c0,5.514 4.486,10 10,10h34c5.514,0 10,-4.486 10,-10v-32c0,-3.309 -2.691,-6 -6,-6zM30,20h24c0.552,0 1,0.448 1,1v29c0,1.105 -0.895,2 -2,2h-24.20117c0.132,-0.646 0.20117,-1.315 0.20117,-2v-29c0,-0.552 0.448,-1 1,-1zM35,24c-1.104,0 -2,0.895 -2,2c0,1.105 0.896,2 2,2h14c1.104,0 2,-0.895 2,-2c0,-1.105 -0.896,-2 -2,-2zM35,31c-1.104,0 -2,0.895 -2,2c0,1.105 0.896,2 2,2h14c1.104,0 2,-0.895 2,-2c0,-1.105 -0.896,-2 -2,-2zM17.88477,33h3.11523v17c0,1.103 -0.897,2 -2,2c-1.103,0 -2,-0.897 -2,-2v-16.11523c0,-0.489 0.39577,-0.88477 0.88477,-0.88477zM35,38c-1.105,0 -2,0.895 -2,2v7c0,1.105 0.895,2 2,2h5c1.105,0 2,-0.895 2,-2v-7c0,-1.105 -0.895,-2 -2,-2zM47,38c-1.104,0 -2,0.895 -2,2c0,1.105 0.896,2 2,2h2c1.104,0 2,-0.895 2,-2c0,-1.105 -0.896,-2 -2,-2zM47,45c-1.104,0 -2,0.895 -2,2c0,1.105 0.896,2 2,2h2c1.104,0 2,-0.895 2,-2c0,-1.105 -0.896,-2 -2,-2z"></path></g></g></svg>