<svg width="18" height="24" viewBox="0 0 18 24" fill="none" xmlns="http://www.w3.org/2000/svg">
<path d="M15 8V6C15 4.4087 14.3679 2.88258 13.2426 1.75736C12.1174 0.632141 10.5913 0 9 0C7.4087 0 5.88258 0.632141 4.75736 1.75736C3.63214 2.88258 3 4.4087 3 6V8C2.20508 8.00237 1.4434 8.31921 0.881302 8.8813C0.319207 9.4434 0.00237409 10.2051 0 11V18C0 19.5913 0.632141 21.1174 1.75736 22.2426C2.88258 23.3679 4.4087 24 6 24H12C13.5913 24 15.1174 23.3679 16.2426 22.2426C17.3679 21.1174 18 19.5913 18 18V11C17.9976 10.2051 17.6808 9.4434 17.1187 8.8813C16.5566 8.31921 15.7949 8.00237 15 8ZM5 6C5 4.93913 5.42143 3.92172 6.17157 3.17157C6.92172 2.42143 7.93913 2 9 2C10.0609 2 11.0783 2.42143 11.8284 3.17157C12.5786 3.92172 13 4.93913 13 6V8H5V6ZM10 18C10 18.2652 9.89464 18.5196 9.70711 18.7071C9.51957 18.8946 9.26522 19 9 19C8.73478 19 8.48043 18.8946 8.29289 18.7071C8.10536 18.5196 8 18.2652 8 18V14C8 13.7348 8.10536 13.4804 8.29289 13.2929C8.48043 13.1054 8.73478 13 9 13C9.26522 13 9.51957 13.1054 9.70711 13.2929C9.89464 13.4804 10 13.7348 10 14V18Z" fill="white"/>
</svg>
