<svg width="50" height="48" viewBox="0 0 50 48" fill="none" xmlns="http://www.w3.org/2000/svg">
<path d="M48.736 5.63568L44.368 1.27368C43.917 0.82268 43.324 0.59668 42.732 0.59668C42.14 0.59668 41.548 0.821679 41.097 1.27268L37.603 4.75668L45.242 12.3827L48.736 8.89968C49.639 7.99768 49.639 6.53468 48.736 5.63568Z" fill="#0062FF"/>
<path d="M14.9219 27.3956L22.5619 35.0226L43.6069 14.0166L35.9669 6.38965L14.9219 27.3956Z" fill="#0062FF"/>
<path d="M13.2731 29.0273L11.6421 38.2793L20.9131 36.6533L13.2731 29.0273Z" fill="#0062FF"/>
<path d="M34.3929 42.4027H5.58694V13.5967H25.9159L30.9259 8.59668H3.81994C2.04094 8.59668 0.585938 10.0517 0.585938 11.8307V44.1697C0.585938 45.9487 2.04094 47.4037 3.81994 47.4037H36.1589C37.9379 47.4037 39.3929 45.9487 39.3929 44.1697V21.0487L34.3929 26.0397V42.4027Z" fill="#0062FF"/>
</svg>
