<svg width="64" height="64" viewBox="0 0 64 64" fill="none" xmlns="http://www.w3.org/2000/svg">
<path d="M33 17.001C24.729 17.001 18 23.73 18 32.001C18 40.272 24.729 47.001 33 47.001C41.271 47.001 48 40.272 48 32.001C48 23.73 41.271 17.001 33 17.001ZM33 45.001C25.832 45.001 20 39.169 20 32.001C20 24.833 25.832 19.001 33 19.001C40.168 19.001 46 24.833 46 32.001C46 39.169 40.168 45.001 33 45.001Z" fill="white"/>
<path d="M33 10.001C20.869 10.001 11 19.87 11 32.001C11 44.132 20.869 54.001 33 54.001C45.131 54.001 55 44.132 55 32.001C55 19.87 45.131 10.001 33 10.001ZM33 52.001C21.972 52.001 13 43.029 13 32.001C13 20.973 21.972 12.001 33 12.001C44.028 12.001 53 20.973 53 32.001C53 43.029 44.028 52.001 33 52.001Z" fill="white"/>
<path d="M62.9999 0.000976562C61.3649 0.000976562 59.9579 1.22098 59.7279 2.83898L56.0109 28.859C55.9669 29.17 56.0709 29.484 56.2919 29.706L57.9999 31.421V61C57.9999 62.654 59.3459 64 60.9999 64C62.6539 64 63.9999 62.654 63.9999 61V0.999977C63.9999 0.447977 63.5519 0.000976562 62.9999 0.000976562ZM61.9999 61.001C61.9999 61.552 61.5509 62.001 60.9999 62.001C60.4489 62.001 59.9999 61.552 59.9999 61.001V31.008C59.9999 30.743 59.8949 30.49 59.7079 30.302L58.0599 28.647L61.7059 3.12098C61.7419 2.87398 61.8459 2.64998 61.9989 2.46898V61.001H61.9999Z" fill="white"/>
<path d="M14 14.764V1.00101C14 0.500008 13.628 0.0750078 13.131 0.0100078C12.632 -0.0579922 12.165 0.256008 12.034 0.741008L9.663 9.55001L7.982 0.812008C7.892 0.341008 7.479 0.0010078 7 0.0010078C6.521 0.0010078 6.108 0.341008 6.018 0.812008L4.337 9.55001L1.965 0.740008C1.834 0.255008 1.364 -0.0579922 0.869 0.0090078C0.372 0.0750078 0 0.499008 0 1.00101V14.765C0 16.526 0.978 18.108 2.553 18.896C3.445 19.341 4 20.239 4 21.237V60.894C4 62.41 5.076 63.728 6.503 63.96C6.667 63.987 6.832 64 6.995 64C7.706 64 8.397 63.751 8.943 63.286C9.615 62.715 10 61.882 10 61.001V21.237C10 20.239 10.555 19.341 11.447 18.895C13.022 18.107 14 16.525 14 14.764ZM10.553 17.106C8.978 17.894 8 19.476 8 21.237V61.001C8 61.295 7.872 61.573 7.647 61.763C7.419 61.956 7.127 62.034 6.824 61.987C6.362 61.911 6 61.431 6 60.894V21.237C6 19.476 5.022 17.894 3.447 17.106C2.555 16.66 2 15.762 2 14.764V8.56201L3.534 14.261C3.655 14.711 4.061 15.005 4.536 15.001C5.001 14.984 5.393 14.648 5.481 14.19L7 6.29601L8.518 14.19C8.606 14.648 8.998 14.983 9.463 15.001C9.927 15.008 10.344 14.711 10.465 14.261L12 8.56201V14.765C12 15.762 11.445 16.66 10.553 17.106Z" fill="white"/>
<path d="M33 37.001H31V39.001H33V37.001Z" fill="white"/>
<path d="M37 37.001H35V39.001H37V37.001Z" fill="white"/>
<path d="M41 37.001H39V39.001H41V37.001Z" fill="white"/>
</svg>
