<svg width="44" height="90" viewBox="0 0 44 90" fill="none" xmlns="http://www.w3.org/2000/svg">
<path d="M22 16C26.4183 16 30 12.4183 30 8C30 3.58172 26.4183 0 22 0C17.5817 0 14 3.58172 14 8C14 12.4183 17.5817 16 22 16Z" fill="#2A2627"/>
<path d="M43.8 49.2L38.2 25.4C38 24.6 37.6 23.8 37 23.2C34.6 21.2 31.8 19.8 28.6 18.8C26.4 18.4 24.2 18 22 18C19.8 18 17.6 18.4 15.4 19C12.2 19.8 9.4 21.4 7 23.4C6.4 24 6 24.8 5.8 25.6L0.200001 49.4C0.200001 49.6 0 50 0 50.4C0 52.6 1.8 54.4 4 54.4C5.8 54.4 7.4 53 7.8 51.4L12 34V90H20V54H24V90H32V33.8L36.2 51.2C36.6 52.8 38.2 54.2 40 54.2C42.2 54.2 44 52.4 44 50.2C44 49.8 43.8 49.4 43.8 49.2Z" fill="#2A2627"/>
</svg>
